<svg width="16" height="16" viewBox="0 0 16 16" fill="none" xmlns="http://www.w3.org/2000/svg">
<path fill-rule="evenodd" clip-rule="evenodd" d="M1.63456 7.57707C0.593166 8.61847 0.593167 10.3069 1.63456 11.3483L4.65155 14.3653C5.69295 15.4067 7.38139 15.4067 8.42279 14.3653L14.2963 8.49183C14.5589 8.2292 14.7001 7.86892 14.6858 7.49778L14.5042 2.77675C14.4774 2.08061 13.9193 1.52242 13.2231 1.49564L8.50208 1.31407C8.13094 1.29979 7.77066 1.44097 7.50803 1.70361L1.63456 7.57707ZM11.6007 5.44345C12.2634 5.44345 12.8007 4.90619 12.8007 4.24345C12.8007 3.58071 12.2634 3.04345 11.6007 3.04345C10.938 3.04345 10.4007 3.58071 10.4007 4.24345C10.4007 4.90619 10.938 5.44345 11.6007 5.44345Z" fill="#1A1A1A"/>
</svg>
