<svg width="24" height="24" viewBox="0 0 24 24" fill="none" xmlns="http://www.w3.org/2000/svg">
<path d="M15.5354 7.05034C15.926 6.65981 16.5591 6.65982 16.9497 7.05034C17.3402 7.44086 17.3402 8.07403 16.9497 8.46455L8.46437 16.9498C8.07385 17.3404 7.44068 17.3404 7.05016 16.9498C6.65963 16.5593 6.65963 15.9261 7.05016 15.5356L15.5354 7.05034Z" fill="#1A1A1A"/>
<path d="M16.9497 15.5356C17.3402 15.9261 17.3402 16.5593 16.9496 16.9498C16.5591 17.3404 15.926 17.3404 15.5354 16.9498L7.05016 8.46455C6.65963 8.07403 6.65963 7.44086 7.05016 7.05034C7.44068 6.65982 8.07385 6.65981 8.46437 7.05034L16.9497 15.5356Z" fill="#1A1A1A"/>
</svg>
