<svg width="147" height="29" viewBox="0 0 147 29" fill="none" xmlns="http://www.w3.org/2000/svg">
<path d="M40.299 20.9807L39.6267 18.7635H34.6241L33.9518 20.9807H30.583L35.1627 6.85913H39.0881L43.6678 20.9807H40.299ZM35.5458 15.7353H38.7014L37.1254 10.5506L35.5458 15.7353Z" fill="black"/>
<path d="M59.8322 10.8955H62.7167V20.9807H59.8322V20.0332C59.1599 20.8594 58.1984 21.2612 56.9659 21.2612C55.6971 21.2612 54.62 20.7571 53.7127 19.7262C52.8091 18.6991 52.3645 17.4257 52.3645 15.9324C52.3645 14.4392 52.8055 13.1885 53.7127 12.1614C54.6164 11.1343 55.6935 10.6075 56.9659 10.6075C58.1984 10.6075 59.1599 11.0092 59.8322 11.8392V10.8955ZM57.5442 18.3997C58.2165 18.3997 58.7768 18.1761 59.1997 17.7327C59.6226 17.2892 59.8358 16.6828 59.8358 15.9362C59.8358 15.1896 59.6226 14.5832 59.1997 14.1398C58.7768 13.6963 58.2201 13.4727 57.5442 13.4727C56.8719 13.4727 56.3116 13.6963 55.8887 14.1398C55.4658 14.5832 55.2526 15.1896 55.2526 15.9362C55.2526 16.6828 55.4658 17.2892 55.8887 17.7327C56.3116 18.1761 56.8719 18.3997 57.5442 18.3997Z" fill="black"/>
<path d="M72.6423 11.7217C73.3363 12.4684 73.6796 13.4765 73.6796 14.7878V20.9807H70.7952V15.2313C70.7952 14.0412 70.1012 13.3969 69.1217 13.3969C68.0264 13.3969 67.3324 14.1019 67.3324 15.4738V20.9807H64.448V10.8955H67.3324V11.843C67.9108 11.0168 68.8325 10.6113 70.0831 10.6113C71.1024 10.6113 71.9663 10.9751 72.6423 11.7217Z" fill="black"/>
<path d="M79.9039 21.2612C78.4797 21.2612 77.2689 20.7571 76.2857 19.7262C75.3061 18.6991 74.8037 17.4257 74.8037 15.9324C74.8037 14.4392 75.3025 13.1885 76.2857 12.1614C77.2652 11.1343 78.4797 10.6075 79.9039 10.6075C81.328 10.6075 82.5389 11.1305 83.5221 12.1614C84.5016 13.1885 85.0041 14.4392 85.0041 15.9324C85.0041 17.4257 84.5053 18.6953 83.5221 19.7262C82.5425 20.7571 81.328 21.2612 79.9039 21.2612ZM79.9039 18.3163C80.5401 18.3163 81.0569 18.0965 81.4798 17.6493C81.9028 17.2059 82.116 16.6412 82.116 15.9362C82.116 15.2313 81.9028 14.6666 81.4798 14.2231C81.0569 13.7797 80.5364 13.5561 79.9039 13.5561C79.2713 13.5561 78.7508 13.7759 78.3279 14.2231C77.905 14.6666 77.6918 15.2313 77.6918 15.9362C77.6918 16.6412 77.905 17.2059 78.3279 17.6493C78.7508 18.0965 79.2713 18.3163 79.9039 18.3163Z" fill="black"/>
<path d="M91.8177 10.8954H95.013L91.4527 20.9806H88.1815L84.6211 10.8954H87.8164L89.8189 17.2892L91.8177 10.8954Z" fill="black"/>
<path d="M48.6523 14.7272C49.9788 15.0304 51.7319 15.7543 51.7102 17.9563C51.7102 19.044 51.3271 19.874 50.5572 20.4387C49.7873 20.9807 48.8475 21.2612 47.7125 21.2612C45.692 21.2612 44.6257 20.56 43.7654 19.2297L45.9558 17.4636C46.357 18.3277 46.6968 18.6309 47.586 18.6309C48.28 18.6309 48.7499 18.358 48.7499 17.9335C48.7499 17.5318 47.9981 17.2892 47.0763 17.0467C45.7498 16.6639 44.0184 15.9779 44.0184 13.9199C44.0184 12.8701 44.3835 12.0628 45.0955 11.4792C45.8257 10.8955 46.7293 10.6113 47.7884 10.6113C49.3861 10.6113 50.5463 11.4147 51.2259 12.2902L49.1077 14.1322C48.8005 13.5485 48.4969 13.2036 47.8029 13.1809C47.2643 13.1657 46.9787 13.4538 46.9787 13.8366C46.9787 14.2421 47.7306 14.4657 48.6523 14.7272Z" fill="black"/>
<g clip-path="url(#clip0)">
<path d="M25.4778 12.5415L24.1004 8.16767L18.2623 7.83506L16.1606 2.06012H11.7752L9.67345 7.83506L3.85121 8.16767L2.47778 12.5415L7.02158 16.4123L5.50566 22.3452L9.04808 25.0643L13.9679 21.7174L18.8719 25.0518L22.4143 22.3327L20.9142 16.4123L25.4778 12.5415ZM18.2742 20.3454L13.9798 17.6762L9.68136 20.3454L10.7698 15.2273L7.02554 11.7599L11.9928 11.2651L13.9758 6.45473L15.9588 11.2651L20.9261 11.7599L17.1818 15.2273L18.2742 20.3454Z" fill="#EE2459"/>
</g>
<defs>
<clipPath id="clip0">
<rect width="23" height="23" fill="white" transform="translate(2.47778 2.06012)"/>
</clipPath>
</defs>
</svg>
