<svg width="29" height="18" viewBox="0 0 29 18" fill="none" xmlns="http://www.w3.org/2000/svg">
<path d="M18.7512 2.07007H10.2511V15.9279H18.7512V2.07007Z" fill="#FF5F00"/>
<path d="M11.1266 8.9999C11.1256 7.66551 11.4286 6.34836 12.0129 5.14813C12.5971 3.94791 13.4471 2.89606 14.4987 2.07218C13.1963 1.05046 11.6321 0.41511 9.98504 0.23875C8.33797 0.06239 6.6744 0.352134 5.18449 1.07487C3.69458 1.7976 2.43843 2.92416 1.5596 4.3258C0.680768 5.72744 0.214722 7.3476 0.214722 9.00112C0.214722 10.6546 0.680768 12.2748 1.5596 13.6764C2.43843 15.0781 3.69458 16.2046 5.18449 16.9274C6.6744 17.6501 8.33797 17.9398 9.98504 17.7635C11.6321 17.5871 13.1963 16.9518 14.4987 15.9301C13.4468 15.1059 12.5965 14.0537 12.0123 12.853C11.4281 11.6523 11.1252 10.3347 11.1266 8.9999Z" fill="#EB001B"/>
<path d="M27.9407 14.4612V14.1773H28.0633V14.1185H27.7715V14.1773H27.8867V14.4612H27.9407ZM28.5072 14.4612V14.1185H28.4189L28.3159 14.3633L28.2129 14.1185H28.1246V14.4612H28.1884V14.2018L28.284 14.4245H28.3503L28.4459 14.2018V14.4612H28.5072Z" fill="#F79E1B"/>
<path d="M28.7838 9.00019C28.7838 10.6538 28.3176 12.2741 27.4386 13.6758C26.5597 15.0775 25.3033 16.204 23.8132 16.9266C22.3231 17.6493 20.6594 17.9388 19.0122 17.7622C17.365 17.5856 15.8009 16.9499 14.4985 15.9279C15.5497 15.1033 16.3995 14.0512 16.9839 12.8509C17.5683 11.6506 17.8719 10.3335 17.8719 8.99896C17.8719 7.66445 17.5683 6.34736 16.9839 5.14707C16.3995 3.94678 15.5497 2.89464 14.4985 2.07003C15.8009 1.04799 17.365 0.412327 19.0122 0.235714C20.6594 0.0591003 22.3231 0.348658 23.8132 1.07129C25.3033 1.79392 26.5597 2.92046 27.4386 4.32215C28.3176 5.72383 28.7838 7.3441 28.7838 8.99774V9.00019Z" fill="#F79E1B"/>
</svg>
