<svg width="24" height="24" viewBox="0 0 24 24" fill="none" xmlns="http://www.w3.org/2000/svg">
<path d="M2 12C2 7.28595 2 4.92893 3.46447 3.46447C4.92893 2 7.28595 2 12 2C16.714 2 19.0711 2 20.5355 3.46447C22 4.92893 22 7.28595 22 12C22 16.714 22 19.0711 20.5355 20.5355C19.0711 22 16.714 22 12 22C7.28595 22 4.92893 22 3.46447 20.5355C2 19.0711 2 16.714 2 12Z" fill="#999999"/>
<path d="M2 12C2 7.28595 2 4.92893 3.46447 3.46447C4.92893 2 7.28595 2 12 2C16.714 2 19.0711 2 20.5355 3.46447C22 4.92893 22 7.28595 22 12C22 16.714 22 19.0711 20.5355 20.5355C19.0711 22 16.714 22 12 22C7.28595 22 4.92893 22 3.46447 20.5355C2 19.0711 2 16.714 2 12Z" fill="#EE8208"/>
<path d="M16.5577 12.2774C16.3388 11.8487 15.7212 11.4877 14.9003 12.0969C13.7823 12.9543 11.9998 12.9543 11.9998 12.9543C11.9998 12.9543 10.2173 12.9543 9.09933 12.0969C8.27844 11.4877 7.66082 11.8487 7.44191 12.2774C7.05101 13.0295 7.48882 13.3981 8.48171 14.0073C9.33387 14.5337 10.4987 14.7293 11.2493 14.8045L10.6238 15.4062C9.73259 16.256 8.87261 17.0758 8.28626 17.6474C7.93445 17.9934 7.93445 18.5424 8.28626 18.8658L8.39571 18.9861C8.74752 19.3246 9.32605 19.3246 9.67786 18.9861L11.9998 16.7449C12.8989 17.5947 13.751 18.4145 14.3452 18.9861C14.697 19.3246 15.2677 19.3246 15.6274 18.9861L15.729 18.8658C16.0886 18.5424 16.0886 17.9934 15.729 17.6474L13.3992 15.4062L12.7816 14.797C13.5243 14.7293 14.6736 14.5262 15.5179 14.0073C16.5108 13.3981 16.9486 13.0295 16.5577 12.2774ZM11.9998 6.13283C13.0787 6.13283 13.9543 6.97518 13.9543 8.00555C13.9543 9.04344 13.0787 9.87826 11.9998 9.87826C10.9209 9.87826 10.0453 9.04344 10.0453 8.00555C10.0453 6.97518 10.9209 6.13283 11.9998 6.13283ZM11.9998 11.8111C14.1888 11.8111 15.9557 10.1114 15.9557 8.00555C15.9557 5.9072 14.1888 4.19995 11.9998 4.19995C9.81077 4.19995 8.0439 5.9072 8.0439 8.00555C8.0439 10.1114 9.81077 11.8111 11.9998 11.8111Z" fill="white"/>
</svg>
