<svg width="24" height="24" viewBox="0 0 24 24" fill="none" xmlns="http://www.w3.org/2000/svg">
<path fill-rule="evenodd" clip-rule="evenodd" d="M16.7719 14.3557L19.3119 14.6457C20.3219 14.7657 21.0819 15.6157 21.0719 16.6257L20.8876 18.936C20.8876 20.066 19.9476 21.006 18.8176 20.936C17.0096 20.8237 15.2781 20.4288 13.6667 19.7948C13.3091 19.6541 12.9574 19.5017 12.6121 19.3379C9.05983 17.6532 6.18457 14.7728 4.50759 11.2144C4.34368 10.8666 4.19122 10.5123 4.05069 10.1521C3.4273 8.55391 3.03876 6.83781 2.92756 5.046C2.85756 3.916 3.79756 2.976 4.92756 2.976L7.42938 2.76321C8.44938 2.76321 9.29938 3.52321 9.41938 4.53321L9.70938 7.05321C9.77938 7.66321 9.56938 8.26321 9.13938 8.69321L6.51756 10.756C7.95756 13.596 10.2776 15.906 13.1076 17.346L15.1319 14.9257C15.5619 14.4957 16.1619 14.2857 16.7719 14.3557ZM16.5532 16.3438L19.0652 16.6306L18.8876 18.8563V18.936C18.8876 18.9359 18.8876 18.9361 18.8876 18.936C17.5459 18.8478 16.2523 18.5835 15.0297 18.1652L16.5532 16.3438ZM7.72052 7.26473L7.43344 4.77009L5.01246 4.976H4.92756C4.92743 4.976 4.92769 4.976 4.92756 4.976C5.01608 6.32445 5.28239 7.62397 5.70394 8.85133L7.72052 7.26473Z" fill="#1A1A1A"/>
</svg>
