<svg width="10" height="10" viewBox="0 0 10 10" fill="none" xmlns="http://www.w3.org/2000/svg">
<path d="M9.66659 4.99992C9.66659 5.36811 9.36811 5.66659 8.99992 5.66659H5.66659V8.99992C5.66659 9.36811 5.36811 9.66659 4.99992 9.66659C4.63173 9.66659 4.33325 9.36811 4.33325 8.99992V5.66659H0.999918C0.631729 5.66659 0.333252 5.36811 0.333252 4.99992C0.333252 4.63173 0.631729 4.33325 0.999919 4.33325H4.33325V0.999918C4.33325 0.631729 4.63173 0.333252 4.99992 0.333252C5.36811 0.333252 5.66659 0.631729 5.66659 0.999919V4.33325H8.99992C9.36811 4.33325 9.66659 4.63173 9.66659 4.99992Z" fill="#EE2A74"/>
</svg>
