<svg width="16" height="16" viewBox="0 0 16 16" fill="none" xmlns="http://www.w3.org/2000/svg">
<path d="M7.50629 1.11945C7.78632 0.865376 8.21348 0.865376 8.49352 1.11945L9.78772 2.29365C9.93015 2.42287 10.1176 2.49109 10.3098 2.48365L12.0559 2.41606C12.4338 2.40143 12.761 2.67601 12.8122 3.05064L13.0488 4.78203C13.0749 4.97257 13.1746 5.14531 13.3266 5.26314L14.7077 6.33378C15.0066 6.56544 15.0807 6.98611 14.8791 7.30601L13.9475 8.78445C13.845 8.94716 13.8104 9.14358 13.8511 9.33155L14.2208 11.0395C14.3009 11.409 14.0873 11.7789 13.7272 11.8944L12.0632 12.4281C11.8801 12.4869 11.7273 12.6151 11.6377 12.7852L10.8231 14.3313C10.6469 14.6658 10.2455 14.8119 9.89542 14.6689L8.27767 14.0082C8.09963 13.9355 7.90018 13.9355 7.72214 14.0082L6.10438 14.6689C5.75434 14.8119 5.35294 14.6658 5.17669 14.3313L4.36214 12.7852C4.27249 12.6151 4.1197 12.4869 3.93657 12.4281L2.27258 11.8944C1.91253 11.7789 1.69895 11.409 1.77897 11.0395L2.14875 9.33155C2.18945 9.14358 2.15481 8.94716 2.05228 8.78445L1.12066 7.30601C0.919075 6.98611 0.99325 6.56544 1.29209 6.33378L2.67319 5.26314C2.82518 5.14531 2.92491 4.97257 2.95096 4.78203L3.18761 3.05064C3.23882 2.67601 3.56604 2.40143 3.94388 2.41606L5.69005 2.48365C5.88223 2.49109 6.06965 2.42287 6.21208 2.29365L7.50629 1.11945Z" fill="white"/>
<path d="M7.33331 4.66667C7.33331 4.29848 7.63179 4 7.99998 4C8.36817 4 8.66665 4.29848 8.66665 4.66667V7.33333C8.66665 7.70152 8.36817 8 7.99998 8C7.63179 8 7.33331 7.70152 7.33331 7.33333V4.66667Z" fill="#27AE60"/>
<path d="M7 10.3333C7 9.78106 7.44772 9.33334 8 9.33334C8.55228 9.33334 9 9.78106 9 10.3333C9 10.8856 8.55228 11.3333 8 11.3333C7.44772 11.3333 7 10.8856 7 10.3333Z" fill="#27AE60"/>
</svg>
