<svg width="28" height="28" viewBox="0 0 28 28" fill="#ee2a74" xmlns="http://www.w3.org/2000/svg">
<path clip-rule="evenodd" d="M14 2.70048L11.8157 4.68222C11.2341 5.20994 10.4687 5.48853 9.68388 5.45815L6.73681 5.34407L6.3374 8.26618C6.23104 9.04432 5.82378 9.74973 5.20307 10.2309L2.87215 12.0379L4.44448 14.5331C4.86318 15.1975 5.00463 15.9997 4.83843 16.7673L4.21433 19.6498L7.02269 20.5505C7.77054 20.7904 8.39451 21.314 8.7606 22.0088L10.1353 24.6181L12.8657 23.5029C13.5927 23.206 14.4073 23.206 15.1343 23.5029L17.8647 24.6181L19.2394 22.0088C19.6055 21.314 20.2295 20.7904 20.9773 20.5505L23.7857 19.6498L23.1616 16.7673C22.9954 15.9997 23.1368 15.1975 23.5555 14.5331L25.1278 12.0379L22.7969 10.2309C22.1762 9.74973 21.769 9.04432 21.6626 8.26618L21.2632 5.34407L18.3161 5.45815C17.5313 5.48853 16.7659 5.20994 16.1843 4.68222L14 2.70048ZM14.6719 0.609635C14.2907 0.263779 13.7093 0.263779 13.3281 0.609635L10.4719 3.201C10.278 3.37691 10.0228 3.46977 9.76124 3.45965L5.90757 3.31047C5.39324 3.29056 4.94781 3.66433 4.8781 4.1743L4.35583 7.99533C4.32037 8.25471 4.18462 8.48984 3.97772 8.65024L0.929744 11.0131C0.522947 11.3284 0.421976 11.9011 0.696382 12.3365L2.75241 15.5993C2.89197 15.8208 2.93912 16.0882 2.88372 16.344L2.06763 20.1133C1.95871 20.6163 2.24945 21.1199 2.73957 21.2771L6.41186 22.455C6.66114 22.5349 6.86913 22.7094 6.99116 22.941L8.78881 26.353C9.02873 26.8084 9.57514 27.0073 10.0516 26.8126L13.6219 25.3544C13.8642 25.2554 14.1358 25.2554 14.3781 25.3544L17.9484 26.8126C18.4249 27.0073 18.9713 26.8084 19.2112 26.353L21.0088 22.941C21.1309 22.7094 21.3389 22.5349 21.5881 22.455L25.2604 21.2771C25.7505 21.1199 26.0413 20.6163 25.9324 20.1133L25.1163 16.344C25.0609 16.0882 25.108 15.8208 25.2476 15.5993L27.3036 12.3365C27.578 11.901 27.4771 11.3284 27.0703 11.0131L24.0223 8.65024C23.8154 8.48984 23.6796 8.25471 23.6442 7.99533L23.1219 4.1743C23.0522 3.66433 22.6068 3.29056 22.0924 3.31047L18.2388 3.45965C17.9772 3.46977 17.722 3.37691 17.5281 3.201L14.6719 0.609635Z"/>
<path d="M12.8333 8.16667C12.8333 7.52233 13.3557 7 14 7C14.6443 7 15.1667 7.52233 15.1667 8.16667V12.8333C15.1667 13.4777 14.6443 14 14 14C13.3557 14 12.8333 13.4777 12.8333 12.8333V8.16667Z" fill="white"/>
<path d="M12.25 18.0833C12.25 17.1168 13.0335 16.3333 14 16.3333C14.9665 16.3333 15.75 17.1168 15.75 18.0833C15.75 19.0498 14.9665 19.8333 14 19.8333C13.0335 19.8333 12.25 19.0498 12.25 18.0833Z" fill="white"/>
</svg>
