<svg width="7" height="13" viewBox="0 0 7 13" fill="none" xmlns="http://www.w3.org/2000/svg">
<path d="M3.47831 12.6501L6.71429 10.3983C6.80016 10.3386 6.90008 10.3087 7 10.3087V0.0224609C6.80273 0.0224169 6.60544 0.134362 6.5276 0.358296L5.23321 4.08211C5.16454 4.27964 4.9802 4.41358 4.77111 4.41784L0.829569 4.49816C0.355607 4.50782 0.159917 5.11009 0.537683 5.39649L3.67925 7.77826C3.8459 7.9046 3.91631 8.12131 3.85575 8.32148L2.71414 12.0949C2.57686 12.5487 3.08918 12.9209 3.47831 12.6501Z" fill="#999999"/>
<path d="M3.47831 12.6501L6.71429 10.3983C6.80016 10.3386 6.90008 10.3087 7 10.3087V0.0224609C6.80273 0.0224169 6.60544 0.134362 6.5276 0.358296L5.23321 4.08211C5.16454 4.27964 4.9802 4.41358 4.77111 4.41784L0.829569 4.49816C0.355607 4.50782 0.159917 5.11009 0.537683 5.39649L3.67925 7.77826C3.8459 7.9046 3.91631 8.12131 3.85575 8.32148L2.71414 12.0949C2.57686 12.5487 3.08918 12.9209 3.47831 12.6501Z" fill="#FFA300"/>
</svg>
