<svg width="29" height="29" viewBox="0 0 29 29" fill="none" xmlns="http://www.w3.org/2000/svg">
<path d="M0.477783 4.06006C0.477783 1.85092 2.26864 0.0600586 4.47778 0.0600586H24.4778C26.6869 0.0600586 28.4778 1.85092 28.4778 4.06006V24.0601C28.4778 26.2692 26.6869 28.0601 24.4778 28.0601H4.47778C2.26864 28.0601 0.477783 26.2692 0.477783 24.0601V4.06006Z" fill="transparent"/>
<path fill-rule="evenodd" clip-rule="evenodd" d="M5.10781 16.0436C5.37455 15.9722 5.53284 15.698 5.46137 15.4313C5.3899 15.1645 5.11573 15.0062 4.84899 15.0777C4.58226 15.1492 4.42397 15.4234 4.49544 15.6901C4.56691 15.9568 4.84108 16.1151 5.10781 16.0436ZM5.62545 17.9755C6.95912 17.6181 7.75057 16.2473 7.39322 14.9136C7.03586 13.58 5.66502 12.7885 4.33136 13.1459C2.99769 13.5032 2.20623 14.8741 2.56359 16.2077C2.92094 17.5414 4.29179 18.3328 5.62545 17.9755Z"/>
<path fill-rule="evenodd" clip-rule="evenodd" d="M24.1078 16.0436C24.3745 15.9722 24.5328 15.698 24.4614 15.4313C24.3899 15.1645 24.1157 15.0062 23.849 15.0777C23.5823 15.1492 23.424 15.4234 23.4954 15.6901C23.5669 15.9568 23.8411 16.1151 24.1078 16.0436ZM24.6255 17.9755C25.9591 17.6181 26.7506 16.2473 26.3932 14.9136C26.0359 13.58 24.665 12.7885 23.3314 13.1459C21.9977 13.5032 21.2062 14.8741 21.5636 16.2077C21.9209 17.5414 23.2918 18.3328 24.6255 17.9755Z"/>
<path d="M25.4778 14.0601C25.4778 20.1352 20.5529 25.0601 14.4778 25.0601C8.40265 25.0601 3.47778 20.1352 3.47778 14.0601C3.47778 7.98493 8.40265 3.06006 14.4778 3.06006C20.5529 3.06006 25.4778 7.98493 25.4778 14.0601Z" fill="transparent"/>
<path fill-rule="evenodd" clip-rule="evenodd" d="M14.4778 23.0601C19.4483 23.0601 23.4778 19.0306 23.4778 14.0601C23.4778 9.0895 19.4483 5.06006 14.4778 5.06006C9.50722 5.06006 5.47778 9.0895 5.47778 14.0601C5.47778 19.0306 9.50722 23.0601 14.4778 23.0601ZM14.4778 25.0601C20.5529 25.0601 25.4778 20.1352 25.4778 14.0601C25.4778 7.98493 20.5529 3.06006 14.4778 3.06006C8.40265 3.06006 3.47778 7.98493 3.47778 14.0601C3.47778 20.1352 8.40265 25.0601 14.4778 25.0601Z"/>
<path fill-rule="evenodd" clip-rule="evenodd" d="M19.063 18.1532C19.4021 18.5892 19.3234 19.2174 18.8875 19.5564C17.6391 20.5271 16.1054 21.0587 14.5241 21.0689C12.9429 21.079 11.4024 20.5671 10.1418 19.6126C9.70145 19.2792 9.61478 18.652 9.94817 18.2117C10.2816 17.7714 10.9088 17.6847 11.3491 18.0181C12.2588 18.7069 13.3703 19.0763 14.5113 19.0689C15.6523 19.0616 16.759 18.678 17.6598 17.9776C18.0958 17.6386 18.724 17.7172 19.063 18.1532Z"/>
<path d="M20.4778 14.5601C20.4778 15.3885 19.8062 16.0601 18.9778 16.0601C18.1494 16.0601 17.4778 15.3885 17.4778 14.5601C17.4778 13.7316 18.1494 13.0601 18.9778 13.0601C19.8062 13.0601 20.4778 13.7316 20.4778 14.5601Z"/>
<path d="M11.4778 14.5601C11.4778 15.3885 10.8062 16.0601 9.97778 16.0601C9.14936 16.0601 8.47778 15.3885 8.47778 14.5601C8.47778 13.7316 9.14936 13.0601 9.97778 13.0601C10.8062 13.0601 11.4778 13.7316 11.4778 14.5601Z"/>
<path d="M7.48176 11.6434C0.52996 11.6434 2.84926 4.68826 2.84926 4.68826C2.84926 4.68826 4.78278 6.56006 6.97778 6.56006C7.97381 6.56006 10.4778 3.56006 15.4778 3.56006C24.7426 3.56006 24.4778 12.0601 24.4778 12.0601L20.4778 9.06006C20.4778 9.06006 14.4336 11.6434 7.48176 11.6434Z" fill="white"/>
<path fill-rule="evenodd" clip-rule="evenodd" d="M9.24756 4.18209C10.7216 3.37834 12.763 2.56006 15.4778 2.56006C17.9518 2.56006 19.8618 3.12935 21.3217 4.03962C22.7799 4.9488 23.7288 6.16055 24.3415 7.35303C24.9511 8.5393 25.2324 9.71377 25.3632 10.5831C25.429 11.0201 25.4578 11.3866 25.47 11.6482C25.4761 11.7791 25.4781 11.8843 25.4785 11.9594C25.4787 11.997 25.4785 12.0271 25.4782 12.0492L25.4777 12.0764L25.4775 12.0854L25.4774 12.0887L25.4773 12.09C25.4773 12.0906 25.4773 12.0912 24.4778 12.0601L25.4773 12.0912L25.4174 14.0147L20.3263 10.1965C20.1695 10.2563 19.9807 10.3267 19.7623 10.405C19.0661 10.6547 18.0678 10.986 16.8486 11.3168C14.4157 11.977 11.0744 12.6434 7.48174 12.6434C5.57832 12.6434 4.16435 12.1651 3.17406 11.3157C2.18556 10.4678 1.74275 9.35593 1.57212 8.32987C1.40281 7.3117 1.49031 6.32238 1.60912 5.61039C1.66935 5.2495 1.7397 4.9478 1.79584 4.7336C1.82397 4.62625 1.84872 4.54019 1.86712 4.47889C1.87632 4.44822 1.88396 4.42369 1.88966 4.40573L1.89671 4.38375L1.89907 4.37655L1.89994 4.37391L1.9003 4.37283C1.90046 4.37236 1.90061 4.37192 2.84925 4.68826L1.9003 4.37283L2.40323 2.86465L3.54341 3.96843C3.54354 3.96855 3.54323 3.96826 3.54341 3.96843L3.55361 3.97802C3.56358 3.98733 3.58042 4.00285 3.60372 4.02372C3.65037 4.0655 3.72254 4.12832 3.81698 4.2052C4.00678 4.35971 4.28156 4.5669 4.61582 4.77332C5.28884 5.18894 6.10997 5.54368 6.92147 5.55951C6.93741 5.55347 6.96209 5.54335 6.99658 5.52705C7.11469 5.47123 7.27241 5.38026 7.49545 5.24177C7.59027 5.18289 7.69461 5.11677 7.8076 5.04517C8.19691 4.79847 8.68889 4.48671 9.24756 4.18209ZM3.51412 6.44338C3.46482 6.9294 3.45715 7.47335 3.54503 8.00178C3.66355 8.71451 3.94437 9.34145 4.47619 9.79763C5.00623 10.2523 5.90927 10.6434 7.48174 10.6434C10.8408 10.6434 13.9976 10.0181 16.3248 9.38663C17.4855 9.07165 18.4329 8.75707 19.0871 8.52241C19.4141 8.40514 19.6674 8.308 19.8371 8.24098C19.922 8.20747 19.9859 8.18151 20.0276 8.16435L20.0733 8.14536L20.0834 8.14112L20.0848 8.14053L20.6158 7.91356L23.1623 9.82343C23.0268 9.32932 22.8346 8.79633 22.5626 8.26709C22.0835 7.33457 21.3614 6.42132 20.2635 5.73675C19.1673 5.05327 17.6362 4.56006 15.4778 4.56006C13.1925 4.56006 11.4819 5.24178 10.205 5.93803C9.71009 6.20788 9.29475 6.47094 8.91224 6.7132C8.78876 6.79141 8.6687 6.86745 8.55049 6.94085C8.32059 7.08361 8.08022 7.22701 7.85122 7.33525C7.63891 7.4356 7.32775 7.56006 6.97777 7.56006C5.6125 7.56006 4.39188 6.98566 3.56496 6.47499C3.54788 6.46445 3.53094 6.45391 3.51412 6.44338Z"/>
</svg>
