<svg width="28" height="28" viewBox="0 0 28 28" fill="none" xmlns="http://www.w3.org/2000/svg">
<path d="M6 23C6 22.4477 6.44772 22 7 22C7.55228 22 8 22.4477 8 23V25C8 25.5523 7.55228 26 7 26C6.44772 26 6 25.5523 6 25V23Z"/>
<path d="M20 23C20 22.4477 20.4477 22 21 22C21.5523 22 22 22.4477 22 23V25C22 25.5523 21.5523 26 21 26C20.4477 26 20 25.5523 20 25V23Z"/>
<path fill-rule="evenodd" clip-rule="evenodd" d="M23 5H5L5 22H23V5ZM5 3C3.89543 3 3 3.89543 3 5V22C3 23.1046 3.89543 24 5 24H23C24.1046 24 25 23.1046 25 22V5C25 3.89543 24.1046 3 23 3H5Z"/>
<path d="M13 5H15V24H13V5Z"/>
<path d="M17 13H18C18.5523 13 19 13.4477 19 14V17C19 17.5523 18.5523 18 18 18H17V13Z"/>
<path d="M11 13H10C9.44772 13 9 13.4477 9 14V17C9 17.5523 9.44772 18 10 18H11V13Z"/>
</svg>
