<svg width="28" height="28" viewBox="0 0 28 28" fill="none" xmlns="http://www.w3.org/2000/svg">
<path d="M21 13C21 12.4477 21.4477 12 22 12C22.5523 12 23 12.4477 23 13V16C23 16.5523 22.5523 17 22 17C21.4477 17 21 16.5523 21 16V13Z"/>
<path d="M17 8H25V10H17V8Z"/>
<path d="M17 19H25V21H17V19Z"/>
<path fill-rule="evenodd" clip-rule="evenodd" d="M3 3C1.89543 3 1 3.89543 1 5V23C1 24.1046 1.89543 25 3 25H25C26.1046 25 27 24.1046 27 23V5C27 3.89543 26.1046 3 25 3H3ZM24 5H19V23H24C24.5523 23 25 22.5523 25 22V6C25 5.44772 24.5523 5 24 5ZM11 5H17V23H11V5ZM9 5H3V23H9V5Z"/>
</svg>
