<svg width="19" height="19" viewBox="0 0 19 19" fill="none" xmlns="http://www.w3.org/2000/svg">
<path fill-rule="evenodd" clip-rule="evenodd" d="M11.2456 2.79235C10.7767 2.32351 10.1408 2.06012 9.47778 2.06012C8.81474 2.06012 8.17886 2.32351 7.71002 2.79235C7.24118 3.26119 6.97778 3.89708 6.97778 4.56012C6.97778 5.22316 7.24118 5.85905 7.71002 6.32789C8.17886 6.79673 8.81474 7.06012 9.47778 7.06012C10.1408 7.06012 10.7767 6.79673 11.2456 6.32789C11.7144 5.85905 11.9778 5.22316 11.9778 4.56012C11.9778 3.89708 11.7144 3.26119 11.2456 2.79235ZM14.948 14.4166C13.652 13.7686 11.7211 13.3101 9.47778 13.3101C7.23445 13.3101 5.30354 13.7686 4.00752 14.4166C2.5924 15.1242 2.47778 15.7322 2.47778 15.8101C2.47778 15.9482 2.58971 16.0601 2.72778 16.0601H16.2278C16.3659 16.0601 16.4778 15.9482 16.4778 15.8101C16.4778 15.7322 16.3632 15.1242 14.948 14.4166ZM12.6598 1.37814C11.8159 0.534225 10.6713 0.0601196 9.47778 0.0601196C8.28431 0.0601196 7.13972 0.534225 6.2958 1.37814C5.45189 2.22205 4.97778 3.36665 4.97778 4.56012C4.97778 5.75359 5.45189 6.89819 6.2958 7.7421C7.13972 8.58601 8.28431 9.06012 9.47778 9.06012C10.6713 9.06012 11.8159 8.58601 12.6598 7.7421C13.5037 6.89819 13.9778 5.75359 13.9778 4.56012C13.9778 3.36665 13.5037 2.22205 12.6598 1.37814ZM18.4778 15.8101C18.4778 13.3239 14.4503 11.3101 9.47778 11.3101C4.50528 11.3101 0.477783 13.3239 0.477783 15.8101C0.477783 17.0528 1.48514 18.0601 2.72778 18.0601H16.2278C17.4704 18.0601 18.4778 17.0528 18.4778 15.8101Z"/>
</svg>
