<svg width="29" height="29" viewBox="0 0 29 29" fill="none" xmlns="http://www.w3.org/2000/svg">
<path fill-rule="evenodd" clip-rule="evenodd" d="M14.4778 17.7267C15.0301 17.7267 15.4778 18.1744 15.4778 18.7267L15.4778 25.7267C15.4778 26.279 15.0301 26.7267 14.4778 26.7267C13.9255 26.7267 13.4778 26.279 13.4778 25.7267L13.4778 18.7267C13.4778 18.1744 13.9255 17.7267 14.4778 17.7267Z"/>
<path fill-rule="evenodd" clip-rule="evenodd" d="M21.2917 24.7562C21.1834 25.2978 20.6565 25.649 20.115 25.5407L15.8506 24.6878C14.9443 24.5066 14.0112 24.5066 13.1049 24.6878L8.84054 25.5407C8.29898 25.649 7.77215 25.2978 7.66384 24.7562C7.55553 24.2147 7.90674 23.6878 8.4483 23.5795L12.7127 22.7267C13.8779 22.4936 15.0776 22.4936 16.2428 22.7267L20.5072 23.5795C21.0488 23.6878 21.4 24.2147 21.2917 24.7562Z"/>
<path fill-rule="evenodd" clip-rule="evenodd" d="M6.03105 13.1001C6.56124 12.9454 7.11641 13.2499 7.27105 13.7801L7.96376 16.1551C8.05637 16.4726 8.32315 16.7087 8.64958 16.762C12.5095 17.3922 16.446 17.3922 20.3059 16.762C20.6323 16.7087 20.8991 16.4726 20.9917 16.1551L21.6844 13.7801C21.839 13.2499 22.3942 12.9454 22.9244 13.1001C23.4546 13.2547 23.759 13.8099 23.6044 14.3401L22.9117 16.7151C22.6033 17.7723 21.715 18.5584 20.6281 18.7358C16.5548 19.4009 12.4006 19.4009 8.32732 18.7358C7.24042 18.5584 6.35212 17.7723 6.04376 16.7151L5.35105 14.3401C5.19641 13.8099 5.50086 13.2547 6.03105 13.1001Z"/>
<path fill-rule="evenodd" clip-rule="evenodd" d="M19.3041 3.22668H9.65126L10.5118 13.5536C13.1358 14.0122 15.8195 14.0122 18.4435 13.5536L19.3041 3.22668ZM9.65126 1.22668C8.48118 1.22668 7.561 2.22674 7.65817 3.39278L8.5661 14.288C8.61243 14.8439 9.02102 15.302 9.56801 15.4114C12.809 16.0596 16.1463 16.0596 19.3873 15.4114C19.9343 15.302 20.3429 14.8439 20.3892 14.288L21.2972 3.39278C21.3943 2.22674 20.4741 1.22668 19.3041 1.22668H9.65126Z"/>
<path fill-rule="evenodd" clip-rule="evenodd" d="M21.6445 14.0601C21.6445 13.5078 22.0922 13.0601 22.6445 13.0601H23.8112C24.3635 13.0601 24.8112 13.5078 24.8112 14.0601C24.8112 14.6123 24.3635 15.0601 23.8112 15.0601H22.6445C22.0922 15.0601 21.6445 14.6123 21.6445 14.0601Z"/>
<path fill-rule="evenodd" clip-rule="evenodd" d="M4.14453 14.0601C4.14453 13.5078 4.59225 13.0601 5.14453 13.0601H6.3112C6.86348 13.0601 7.3112 13.5078 7.3112 14.0601C7.3112 14.6123 6.86348 15.0601 6.3112 15.0601H5.14453C4.59225 15.0601 4.14453 14.6123 4.14453 14.0601Z"/>
</svg>
