<svg width="19" height="19" viewBox="0 0 19 19" fill="none" xmlns="http://www.w3.org/2000/svg">
<path fill-rule="evenodd" clip-rule="evenodd" d="M14.2496 12.4159L16.7896 12.7059C17.7996 12.8259 18.5596 13.6759 18.5496 14.6859L18.3653 16.9962C18.3653 18.1262 17.4253 19.0662 16.2953 18.9962C14.4874 18.8838 12.7558 18.4889 11.1444 17.855C10.7868 17.7143 10.4351 17.5618 10.0899 17.3981C6.53755 15.7134 3.66229 12.8329 1.98531 9.27456C1.8214 8.92676 1.66894 8.57249 1.52841 8.21222C0.905025 6.61406 0.516486 4.89796 0.405285 3.10615C0.335285 1.97615 1.27529 1.03615 2.40529 1.03615L4.9071 0.823364C5.9271 0.823364 6.7771 1.58336 6.8971 2.59336L7.1871 5.11336C7.2571 5.72336 7.0471 6.32336 6.6171 6.75336L3.99528 8.81615C5.43528 11.6562 7.75529 13.9662 10.5853 15.4062L12.6096 12.9859C13.0396 12.5559 13.6396 12.3459 14.2496 12.4159ZM14.0309 14.4039L16.5429 14.6907L16.3653 16.9165V16.9962C16.3653 16.996 16.3653 16.9963 16.3653 16.9962C15.0236 16.908 13.73 16.6437 12.5074 16.2254L14.0309 14.4039ZM5.19824 5.32488L4.91116 2.83024L2.49019 3.03615H2.40529C2.40515 3.03615 2.40542 3.03615 2.40529 3.03615C2.4938 4.3846 2.76012 5.68412 3.18166 6.91148L5.19824 5.32488Z"/>
</svg>
