<svg width="24" height="24" viewBox="0 0 24 24" xmlns="http://www.w3.org/2000/svg">
<path d="M16.6666 11.9999C16.6666 12.3681 16.3681 12.6666 15.9999 12.6666H12.6666V15.9999C12.6666 16.3681 12.3681 16.6666 11.9999 16.6666C11.6317 16.6666 11.3333 16.3681 11.3333 15.9999V12.6666H7.99992C7.63173 12.6666 7.33325 12.3681 7.33325 11.9999C7.33325 11.6317 7.63173 11.3333 7.99992 11.3333H11.3333V7.99992C11.3333 7.63173 11.6317 7.33325 11.9999 7.33325C12.3681 7.33325 12.6666 7.63173 12.6666 7.99992V11.3333H15.9999C16.3681 11.3333 16.6666 11.6317 16.6666 11.9999Z"/>
</svg>
