<svg width="29" height="29" viewBox="0 0 29 29" fill="none" xmlns="http://www.w3.org/2000/svg">
<path d="M16.2278 13.4767C16.2278 14.4432 15.4443 15.2267 14.4778 15.2267C13.5113 15.2267 12.7278 14.4432 12.7278 13.4767C12.7278 12.5102 13.5113 11.7267 14.4778 11.7267C15.4443 11.7267 16.2278 12.5102 16.2278 13.4767Z"/>
<path fill-rule="evenodd" clip-rule="evenodd" d="M14.4778 14.2267C14.892 14.2267 15.2278 13.8909 15.2278 13.4767C15.2278 13.0625 14.892 12.7267 14.4778 12.7267C14.0636 12.7267 13.7278 13.0625 13.7278 13.4767C13.7278 13.8909 14.0636 14.2267 14.4778 14.2267ZM14.4778 15.2267C15.4443 15.2267 16.2278 14.4432 16.2278 13.4767C16.2278 12.5102 15.4443 11.7267 14.4778 11.7267C13.5113 11.7267 12.7278 12.5102 12.7278 13.4767C12.7278 14.4432 13.5113 15.2267 14.4778 15.2267Z"/>
<path fill-rule="evenodd" clip-rule="evenodd" d="M2.31507 9.69186C2.79458 9.41785 3.40544 9.58445 3.67945 10.064L8.11057 17.8184C12.3264 18.5207 16.6294 18.5207 20.8452 17.8184L25.2763 10.064C25.5503 9.58445 26.1612 9.41785 26.6407 9.69186C27.1202 9.96587 27.2868 10.5767 27.0128 11.0562L22.5802 18.8133C22.283 19.3334 21.7677 19.6923 21.1769 19.7907C16.7415 20.53 12.2143 20.53 7.77883 19.7907C7.188 19.6923 6.67274 19.3334 6.37556 18.8133L1.94296 11.0562C1.66895 10.5767 1.83555 9.96587 2.31507 9.69186ZM20.8438 17.8209C20.8437 17.821 20.8437 17.821 20.8437 17.821L20.8492 17.8241L20.8437 17.821L20.8438 17.8209Z"/>
<path fill-rule="evenodd" clip-rule="evenodd" d="M14.4778 2.56006C15.0301 2.56006 15.4778 3.00777 15.4778 3.56006V7.06006C15.4778 7.61234 15.0301 8.06006 14.4778 8.06006C13.9255 8.06006 13.4778 7.61234 13.4778 7.06006V3.56006C13.4778 3.00777 13.9255 2.56006 14.4778 2.56006Z"/>
<path fill-rule="evenodd" clip-rule="evenodd" d="M21.5958 4.95766C22.1127 5.15216 22.3741 5.72887 22.1796 6.24577L21.0747 9.18211C20.8802 9.69901 20.3035 9.96037 19.7866 9.76588C19.2697 9.57138 19.0083 8.99467 19.2028 8.47777L20.3077 5.54143C20.5022 5.02452 21.0789 4.76316 21.5958 4.95766Z"/>
<path fill-rule="evenodd" clip-rule="evenodd" d="M7.3581 4.9574C7.87502 4.76294 8.4517 5.02433 8.64617 5.54125L9.75106 8.47816C9.94553 8.99507 9.68413 9.57176 9.16722 9.76623C8.6503 9.9607 8.07361 9.6993 7.87915 9.18239L6.77426 6.24547C6.57979 5.72856 6.84119 5.15187 7.3581 4.9574Z"/>
<path fill-rule="evenodd" clip-rule="evenodd" d="M13.4649 5.68315C13.8822 4.84845 15.0734 4.84846 15.4907 5.68315L15.8909 6.48344C16.5854 7.87262 18.3404 8.33867 19.6327 7.47714C20.2576 7.06054 21.1072 7.37282 21.3135 8.09497L21.4778 8.66998C21.9243 10.2327 23.3526 11.31 24.9778 11.31V13.31C22.6154 13.31 20.5216 11.8409 19.7004 9.66009C17.8071 10.3183 15.6628 9.65851 14.4778 8.00206C13.2928 9.6585 11.1485 10.3183 9.25521 9.66009C8.43395 11.8409 6.34012 13.31 3.97778 13.31V11.31C5.603 11.31 7.0313 10.2327 7.47778 8.66998L7.64207 8.09497C7.8484 7.37282 8.69798 7.06054 9.32288 7.47714C10.6152 8.33867 12.3701 7.87262 13.0647 6.48344L13.4649 5.68315Z"/>
<path fill-rule="evenodd" clip-rule="evenodd" d="M21.5056 23.5578C21.5964 24.1026 21.2285 24.619 20.6818 24.6973C16.5671 25.2868 12.3893 25.2868 8.27458 24.6973C7.72788 24.619 7.35998 24.1026 7.45078 23.5578L7.50558 23.229C7.59637 22.6843 8.11147 22.3175 8.65828 22.3951C12.5188 22.9431 16.4375 22.9431 20.2981 22.3951C20.8449 22.3175 21.36 22.6843 21.4508 23.229L21.5056 23.5578Z"/>
</svg>
