<svg width="29" height="29" viewBox="0 0 29 29" fill="none" xmlns="http://www.w3.org/2000/svg">
<g clip-path="url(#clip0)">
<path fill-rule="evenodd" clip-rule="evenodd" d="M12.3629 24.7246C13.7174 24.7401 15.0579 24.6688 16.2331 24.521C17.328 24.3832 18.1969 24.1892 18.7832 23.9767C18.7745 23.9735 18.7657 23.9704 18.7568 23.9672C18.0998 23.7332 17.117 23.5277 15.8967 23.3927C14.6863 23.2587 13.3301 23.2037 11.9816 23.2354C10.6318 23.2672 9.36022 23.3843 8.30838 23.569C7.22795 23.7588 6.5181 23.9964 6.17139 24.2018C5.69623 24.4833 5.08284 24.3263 4.80135 23.8512C4.51986 23.376 4.67686 22.7626 5.15202 22.4811C5.81879 22.0861 6.82096 21.7996 7.96244 21.5992C9.13253 21.3937 10.5065 21.2696 11.9345 21.236C13.3637 21.2023 14.8095 21.2601 16.1167 21.4048C17.4141 21.5484 18.5668 21.7764 19.4279 22.0832C19.8552 22.2354 20.2529 22.4215 20.5689 22.6568C20.8665 22.8785 21.2388 23.2564 21.3023 23.8191C21.3704 24.423 21.0484 24.8764 20.7514 25.1466C20.4557 25.4156 20.0701 25.6186 19.67 25.7788C18.8593 26.1034 17.7463 26.3463 16.4828 26.5053C15.2066 26.6659 13.7742 26.7409 12.34 26.7245C11.7878 26.7181 11.3452 26.2653 11.3515 25.7131C11.3579 25.1608 11.8107 24.7183 12.3629 24.7246Z"/>
<path fill-rule="evenodd" clip-rule="evenodd" d="M11.1546 1.08401C11.2334 0.53738 11.7405 0.158124 12.2871 0.236922C14.2917 0.525892 15.9934 1.16605 17.4745 2.28442C18.9476 3.39667 20.1421 4.93644 21.2067 6.9326C21.9518 8.32974 22.2902 10.0998 22.4147 11.8851C22.5403 13.6868 22.4532 15.593 22.2863 17.3194C22.119 19.0493 21.8693 20.6207 21.6619 21.7586C21.558 22.3282 21.4644 22.7909 21.3965 23.1125C21.3625 23.2734 21.3349 23.3991 21.3157 23.4853C21.306 23.5285 21.2985 23.5617 21.2932 23.5846L21.2871 23.6111L21.2849 23.6205C21.2849 23.6208 21.2847 23.6217 20.3111 23.3934L21.2847 23.6217C21.1586 24.1594 20.6205 24.493 20.0828 24.3669C19.5451 24.2409 19.2115 23.7029 19.3375 23.1652L19.3388 23.1594L19.3437 23.138L19.3638 23.0492C19.3815 22.9701 19.4074 22.852 19.4397 22.6992C19.5043 22.3935 19.5942 21.9491 19.6943 21.3999C19.8948 20.3 20.1351 18.7862 20.2956 17.1269C20.4563 15.4641 20.5347 13.6769 20.4195 12.0242C20.3032 10.355 19.9945 8.90976 19.4419 7.87373C18.4662 6.04413 17.4411 4.76526 16.2694 3.88052C15.1057 3.00189 13.7376 2.46669 12.0017 2.21646C11.4551 2.13766 11.0758 1.63065 11.1546 1.08401Z"/>
<path fill-rule="evenodd" clip-rule="evenodd" d="M12.1445 0.226685C12.6968 0.226685 13.1445 0.6744 13.1445 1.22668V5.89335C13.1445 6.44564 12.6968 6.89335 12.1445 6.89335C11.5922 6.89335 11.1445 6.44564 11.1445 5.89335V1.22668C11.1445 0.6744 11.5922 0.226685 12.1445 0.226685Z"/>
<path fill-rule="evenodd" clip-rule="evenodd" d="M12.9121 4.18444L11.5611 3.56006L3.97778 18.1434L7.47702 19.4112C10.5112 20.4942 13.8488 18.9125 14.9319 15.8783C16.1592 12.4399 16.8111 5.89339 12.9121 4.18444ZM6.80545 17.0407L8.15339 17.529C10.1462 18.2379 12.337 17.1985 13.0483 15.206C13.5857 13.7003 13.9964 11.4855 13.85 9.53238C13.717 7.75958 13.1884 6.70618 12.4424 6.2003L6.80545 17.0407Z"/>
<path d="M11.5603 3.56006C15.0602 3.56025 9.61834 20.2586 3.97709 18.1434C-1.66423 16.0282 7.77867 3.55985 11.5603 3.56006Z" fill="white"/>
<path fill-rule="evenodd" clip-rule="evenodd" d="M4.31355 16.0082C4.33925 16.0591 4.39587 16.1645 4.67925 16.2707C4.98029 16.3836 5.57047 16.4083 6.60907 15.3537C7.61078 14.3366 8.58958 12.7032 9.35031 10.8762C10.1086 9.05496 10.5632 7.25154 10.6501 5.99803C10.6502 5.99619 10.6503 5.99435 10.6504 5.99252C10.2603 6.24148 9.81251 6.58656 9.32831 7.02448C8.14414 8.09549 6.90131 9.57695 5.92774 11.1238C4.92976 12.7094 4.34472 14.1579 4.23972 15.1773C4.18934 15.6664 4.2646 15.9112 4.31355 16.0082ZM11.5603 3.56006C15.0602 3.56025 9.61834 20.2586 3.97709 18.1434C-1.66423 16.0282 7.77867 3.55985 11.5603 3.56006Z"/>
</g>
</svg>
