<svg width="28" height="28" viewBox="0 0 28 28" fill="none" xmlns="http://www.w3.org/2000/svg">
<path d="M1 8C1 7.44772 1.44772 7 2 7H26C26.5523 7 27 7.44772 27 8C27 8.55228 26.5523 9 26 9H2C1.44772 9 1 8.55228 1 8Z"/>
<path d="M8 6C8 5.44772 8.44772 5 9 5H14C14.5523 5 15 5.44772 15 6C15 6.55228 14.5523 7 14 7H9C8.44772 7 8 6.55228 8 6Z"/>
<path fill-rule="evenodd" clip-rule="evenodd" d="M4.38021 11H23.6198L25.9806 22.8039C26.0889 23.3454 25.7377 23.8723 25.1961 23.9806C24.6546 24.0889 24.1277 23.7377 24.0194 23.1961L21.9802 13H6.01981L3.98059 23.1961C3.87228 23.7377 3.34545 24.0889 2.80389 23.9806C2.26233 23.8723 1.91112 23.3454 2.01943 22.8039L4.38021 11Z"/>
<path d="M5 15H24V17H5V15Z"/>
</svg>
